<?xml version="1.0" standalone="no"?>
<!DOCTYPE svg PUBLIC "-//W3C//DTD SVG 20010904//EN"
 "http://www.w3.org/TR/2001/REC-SVG-20010904/DTD/svg10.dtd">
<svg version="1.0" xmlns="http://www.w3.org/2000/svg"
 width="500.000000pt" height="500.000000pt" viewBox="0 0 500.000000 500.000000"
 preserveAspectRatio="xMidYMid meet">

<g transform="translate(0.000000,500.000000) scale(0.100000,-0.100000)"
fill="#000000" stroke="none">
<path d="M2398 3353 l-98 -96 0 -234 c0 -272 -10 -260 115 -134 44 45 83 81
87 81 4 0 41 -33 81 -72 40 -40 84 -82 96 -93 l24 -20 -6 237 c-3 131 -9 243
-14 250 -10 16 -178 178 -184 178 -2 0 -48 -44 -101 -97z"/>
<path d="M2121 3086 l-104 -103 1 -233 c1 -128 2 -234 4 -235 2 -2 49 41 106
96 l102 100 0 239 c0 132 -1 240 -2 240 -2 -1 -50 -47 -107 -104z"/>
<path d="M2770 2955 l0 -240 103 -103 c56 -56 106 -102 111 -102 5 0 6 104 3
237 l-7 237 -105 106 -105 105 0 -240z"/>
<path d="M2335 2713 c-88 -86 -242 -236 -342 -335 -101 -98 -183 -180 -183
-183 0 -3 70 -5 155 -5 l155 0 186 183 c102 100 189 183 192 184 4 2 92 -80
196 -182 l189 -185 153 0 c85 0 154 2 154 5 0 9 -681 675 -690 675 -3 0 -77
-71 -165 -157z"/>
<path d="M2368 2332 c-70 -70 -131 -130 -135 -134 -3 -5 118 -8 270 -8 l276 0
-135 133 c-75 72 -139 133 -142 134 -4 2 -64 -54 -134 -125z"/>
<path d="M3062 2007 c-23 -10 -27 -23 -16 -51 8 -22 70 -22 78 0 16 41 -19 70
-62 51z"/>
<path d="M1960 1835 l0 -155 35 0 c32 0 35 3 35 28 0 26 15 52 31 52 3 0 19
-18 34 -40 25 -36 32 -40 72 -40 l44 0 -45 59 c-25 33 -46 63 -46 68 0 5 18
29 39 53 l40 45 -36 3 c-31 3 -42 -3 -77 -37 -23 -23 -45 -41 -49 -41 -4 0 -7
36 -7 80 l0 80 -35 0 -35 0 0 -155z"/>
<path d="M1010 1963 c-1 -4 18 -70 42 -145 l43 -138 42 0 42 0 27 85 c14 47
30 85 34 85 4 0 20 -38 35 -85 l28 -86 41 3 40 3 43 135 c24 74 43 138 43 143
0 4 -15 7 -33 7 l-34 0 -28 -95 c-15 -53 -31 -92 -35 -88 -4 4 -20 48 -35 96
l-27 88 -35 -3 c-36 -3 -36 -3 -69 -98 -19 -57 -34 -89 -38 -80 -3 8 -16 51
-29 95 l-23 80 -37 3 c-20 2 -37 0 -37 -5z"/>
<path d="M2240 1825 l0 -145 40 0 40 0 0 55 0 55 65 0 65 0 0 -55 0 -55 35 0
35 0 0 145 0 145 -35 0 -35 0 0 -55 0 -56 -67 3 -67 3 3 53 2 52 -40 0 -41 0
0 -145z"/>
<path d="M1544 1900 c-36 -14 -64 -59 -64 -102 0 -55 22 -91 69 -112 54 -25
104 -15 148 29 76 76 19 196 -94 194 -21 0 -48 -4 -59 -9z m110 -87 c17 -62
-41 -107 -86 -66 -20 18 -23 54 -7 84 8 16 19 19 47 17 31 -3 38 -7 46 -35z"/>
<path d="M1770 1795 l0 -115 38 0 37 0 -3 60 c-3 53 -1 62 23 85 14 15 32 24
40 21 12 -4 15 3 15 30 0 33 -2 36 -24 30 -13 -3 -31 -9 -40 -12 -9 -3 -16 -1
-16 5 0 6 -16 11 -35 11 l-35 0 0 -115z"/>
<path d="M2634 1900 c-38 -15 -64 -59 -64 -109 0 -60 29 -96 91 -112 41 -11
51 -10 91 9 120 59 76 224 -59 221 -21 0 -48 -4 -59 -9z m98 -67 c22 -20 23
-51 2 -81 -42 -61 -120 11 -84 79 13 24 57 25 82 2z"/>
<path d="M2867 1903 c-4 -3 -7 -55 -7 -115 l0 -108 40 0 39 0 3 73 c3 70 4 72
35 87 26 12 33 21 33 44 0 25 -3 27 -24 22 -13 -3 -31 -9 -40 -12 -9 -3 -16
-1 -16 5 0 12 -52 15 -63 4z"/>
<path d="M3050 1796 l0 -116 35 0 36 0 -3 113 -3 112 -32 3 -33 3 0 -115z"/>
<path d="M3167 1904 c-4 -4 -7 -18 -7 -30 0 -21 5 -23 55 -26 l55 -3 -55 -62
c-30 -33 -55 -71 -55 -82 0 -20 5 -21 105 -21 105 0 105 0 105 25 0 22 -4 24
-57 27 l-56 3 57 67 c80 93 76 102 -45 106 -52 1 -98 0 -102 -4z"/>
<path d="M3453 1895 c-61 -26 -80 -106 -40 -166 68 -101 230 -57 230 63 0 51
-18 84 -58 103 -40 18 -90 19 -132 0z m105 -57 c30 -30 2 -108 -38 -108 -44 0
-71 68 -40 105 15 18 61 20 78 3z"/>
<path d="M3690 1795 l0 -115 35 0 35 0 0 68 c0 55 4 72 19 86 44 40 81 -3 81
-96 l0 -58 36 0 36 0 -4 91 c-3 85 -5 92 -31 115 -30 25 -69 30 -111 14 -16
-6 -27 -6 -31 0 -4 6 -19 10 -36 10 l-29 0 0 -115z"/>
</g>
</svg>
